<mxfile host="app.diagrams.net" agent="Mozilla/5.0 (Windows NT 10.0; Win64; x64) AppleWebKit/537.36 (KHTML, like Gecko) Chrome/134.0.0.0 Safari/537.36 Edg/134.0.0.0" version="26.1.3" pages="2">
  <diagram name="Page-1" id="4RnOt3Qk7dOuVQj6QnMe">
    <mxGraphModel dx="757" dy="810" grid="1" gridSize="10" guides="1" tooltips="1" connect="1" arrows="1" fold="1" page="1" pageScale="1" pageWidth="850" pageHeight="1100" math="0" shadow="0">
      <root>
        <mxCell id="0" />
        <mxCell id="1" parent="0" />
        <mxCell id="g8feGqJLuPKli-w47vS1-1" value="&lt;b&gt;&lt;font style=&quot;font-size: 18px;&quot;&gt;Stage 1 (x3)&lt;/font&gt;&lt;/b&gt;" style="rounded=1;whiteSpace=wrap;html=1;fillColor=#B3FF66;" vertex="1" parent="1">
          <mxGeometry x="320" y="210" width="120" height="110" as="geometry" />
        </mxCell>
        <mxCell id="g8feGqJLuPKli-w47vS1-3" value="&lt;b&gt;&lt;font style=&quot;font-size: 18px;&quot;&gt;Stage 2 (x4)&lt;/font&gt;&lt;/b&gt;" style="rounded=1;whiteSpace=wrap;html=1;fillColor=#B3FF66;" vertex="1" parent="1">
          <mxGeometry x="440" y="210" width="120" height="110" as="geometry" />
        </mxCell>
        <mxCell id="g8feGqJLuPKli-w47vS1-4" value="&lt;b&gt;&lt;font style=&quot;font-size: 18px;&quot;&gt;Stage 3 (x6)&lt;/font&gt;&lt;/b&gt;" style="rounded=1;whiteSpace=wrap;html=1;fillColor=#B3FF66;" vertex="1" parent="1">
          <mxGeometry x="560" y="210" width="120" height="110" as="geometry" />
        </mxCell>
        <mxCell id="g8feGqJLuPKli-w47vS1-5" value="&lt;b&gt;&lt;font style=&quot;font-size: 18px;&quot;&gt;Stage 4 (x3)&lt;/font&gt;&lt;/b&gt;" style="rounded=1;whiteSpace=wrap;html=1;fillColor=#B3FF66;" vertex="1" parent="1">
          <mxGeometry x="680" y="210" width="120" height="110" as="geometry" />
        </mxCell>
        <mxCell id="g8feGqJLuPKli-w47vS1-6" value="&lt;b&gt;&lt;font style=&quot;font-size: 18px;&quot;&gt;Stem&lt;/font&gt;&lt;/b&gt;" style="rounded=1;whiteSpace=wrap;html=1;fillColor=#66B2FF;" vertex="1" parent="1">
          <mxGeometry x="200" y="210" width="120" height="110" as="geometry" />
        </mxCell>
        <mxCell id="g8feGqJLuPKli-w47vS1-7" value="&lt;b&gt;&lt;font style=&quot;font-size: 18px;&quot;&gt;Head&lt;/font&gt;&lt;/b&gt;" style="rounded=1;whiteSpace=wrap;html=1;fillColor=#C3ABD0;" vertex="1" parent="1">
          <mxGeometry x="800" y="210" width="120" height="110" as="geometry" />
        </mxCell>
      </root>
    </mxGraphModel>
  </diagram>
  <diagram id="Zuw9m-ieatfTfabgBSQ4" name="Page-2">
    <mxGraphModel dx="2172" dy="957" grid="1" gridSize="10" guides="1" tooltips="1" connect="1" arrows="1" fold="1" page="1" pageScale="1" pageWidth="850" pageHeight="1100" math="0" shadow="0">
      <root>
        <mxCell id="0" />
        <mxCell id="1" parent="0" />
        <mxCell id="sxbjC9KxER7nx9AhPP_t-9" value="&lt;b&gt;&lt;font style=&quot;font-size: 18px;&quot;&gt;Conv1&lt;/font&gt;&lt;/b&gt;" style="rounded=1;whiteSpace=wrap;html=1;fillColor=#CCCCCC;" vertex="1" parent="1">
          <mxGeometry x="160" y="130" width="180" height="60" as="geometry" />
        </mxCell>
        <mxCell id="sxbjC9KxER7nx9AhPP_t-10" value="&lt;b&gt;&lt;font style=&quot;font-size: 18px;&quot;&gt;BatchNormalization&lt;/font&gt;&lt;/b&gt;" style="rounded=1;whiteSpace=wrap;html=1;fillColor=#CCCCCC;" vertex="1" parent="1">
          <mxGeometry x="160" y="190" width="180" height="60" as="geometry" />
        </mxCell>
        <mxCell id="sxbjC9KxER7nx9AhPP_t-11" value="&lt;font style=&quot;font-size: 18px;&quot;&gt;&lt;b&gt;ReLU&lt;/b&gt;&lt;/font&gt;" style="rounded=1;whiteSpace=wrap;html=1;fillColor=#CCCCCC;" vertex="1" parent="1">
          <mxGeometry x="160" y="250" width="180" height="60" as="geometry" />
        </mxCell>
        <mxCell id="sxbjC9KxER7nx9AhPP_t-12" value="&lt;font style=&quot;font-size: 18px;&quot;&gt;&lt;b&gt;MaxPool&lt;/b&gt;&lt;/font&gt;" style="rounded=1;whiteSpace=wrap;html=1;fillColor=#CCCCCC;" vertex="1" parent="1">
          <mxGeometry x="160" y="310" width="180" height="60" as="geometry" />
        </mxCell>
        <mxCell id="sxbjC9KxER7nx9AhPP_t-13" value="&lt;font style=&quot;font-size: 18px;&quot;&gt;&lt;b&gt;AdaptiveAvgPool2D&lt;/b&gt;&lt;/font&gt;" style="rounded=1;whiteSpace=wrap;html=1;fillColor=#66B2FF;" vertex="1" parent="1">
          <mxGeometry x="160" y="760" width="190" height="60" as="geometry" />
        </mxCell>
        <mxCell id="sxbjC9KxER7nx9AhPP_t-14" value="&lt;font style=&quot;font-size: 18px;&quot;&gt;&lt;b&gt;Flatten&lt;/b&gt;&lt;/font&gt;" style="rounded=1;whiteSpace=wrap;html=1;fillColor=#FFCE9F;" vertex="1" parent="1">
          <mxGeometry x="160" y="820" width="190" height="60" as="geometry" />
        </mxCell>
        <mxCell id="WPCvZmUOCqv5itpOB0DE-1" value="&lt;b&gt;&lt;font style=&quot;font-size: 18px;&quot;&gt;Fully Connected&lt;/font&gt;&lt;/b&gt;" style="rounded=1;whiteSpace=wrap;html=1;fillColor=#FFCE9F;" vertex="1" parent="1">
          <mxGeometry x="160" y="880" width="190" height="60" as="geometry" />
        </mxCell>
        <mxCell id="WPCvZmUOCqv5itpOB0DE-2" value="&lt;b&gt;&lt;font style=&quot;font-size: 18px;&quot;&gt;Layer 1&lt;/font&gt;&lt;/b&gt;" style="rounded=1;whiteSpace=wrap;html=1;fillColor=#CCCCCC;" vertex="1" parent="1">
          <mxGeometry x="160" y="370" width="180" height="60" as="geometry" />
        </mxCell>
        <mxCell id="WPCvZmUOCqv5itpOB0DE-3" value="&lt;b&gt;&lt;font style=&quot;font-size: 18px;&quot;&gt;Layer 2&lt;/font&gt;&lt;/b&gt;" style="rounded=1;whiteSpace=wrap;html=1;fillColor=#CCCCCC;" vertex="1" parent="1">
          <mxGeometry x="160" y="430" width="180" height="60" as="geometry" />
        </mxCell>
        <mxCell id="WPCvZmUOCqv5itpOB0DE-4" value="&lt;b&gt;&lt;font style=&quot;font-size: 18px;&quot;&gt;Layer 3&lt;/font&gt;&lt;/b&gt;" style="rounded=1;whiteSpace=wrap;html=1;fillColor=#CCFFFF;" vertex="1" parent="1">
          <mxGeometry x="160" y="520" width="180" height="60" as="geometry" />
        </mxCell>
        <mxCell id="WPCvZmUOCqv5itpOB0DE-5" value="&lt;b&gt;&lt;font style=&quot;font-size: 18px;&quot;&gt;PSA1&lt;/font&gt;&lt;/b&gt;" style="rounded=1;whiteSpace=wrap;html=1;fillColor=#F19C99;" vertex="1" parent="1">
          <mxGeometry x="160" y="580" width="180" height="40" as="geometry" />
        </mxCell>
        <mxCell id="WPCvZmUOCqv5itpOB0DE-6" value="&lt;b&gt;&lt;font style=&quot;font-size: 18px;&quot;&gt;Layer 4&lt;/font&gt;&lt;/b&gt;" style="rounded=1;whiteSpace=wrap;html=1;fillColor=#CCFFFF;" vertex="1" parent="1">
          <mxGeometry x="160" y="620" width="180" height="60" as="geometry" />
        </mxCell>
        <mxCell id="WPCvZmUOCqv5itpOB0DE-7" value="&lt;b&gt;&lt;font style=&quot;font-size: 18px;&quot;&gt;PSA2&lt;/font&gt;&lt;/b&gt;" style="rounded=1;whiteSpace=wrap;html=1;fillColor=#F19C99;" vertex="1" parent="1">
          <mxGeometry x="160" y="680" width="180" height="40" as="geometry" />
        </mxCell>
        <mxCell id="WPCvZmUOCqv5itpOB0DE-8" value="" style="endArrow=none;dashed=1;html=1;dashPattern=1 3;strokeWidth=2;rounded=0;exitX=0.474;exitY=0;exitDx=0;exitDy=0;entryX=0.5;entryY=1;entryDx=0;entryDy=0;exitPerimeter=0;" edge="1" parent="1" source="sxbjC9KxER7nx9AhPP_t-13" target="WPCvZmUOCqv5itpOB0DE-7">
          <mxGeometry width="50" height="50" relative="1" as="geometry">
            <mxPoint x="210" y="760" as="sourcePoint" />
            <mxPoint x="260" y="710" as="targetPoint" />
          </mxGeometry>
        </mxCell>
        <mxCell id="WPCvZmUOCqv5itpOB0DE-9" value="" style="endArrow=none;dashed=1;html=1;dashPattern=1 3;strokeWidth=2;rounded=0;entryX=0.5;entryY=1;entryDx=0;entryDy=0;" edge="1" parent="1">
          <mxGeometry width="50" height="50" relative="1" as="geometry">
            <mxPoint x="250.03" y="520" as="sourcePoint" />
            <mxPoint x="249.73999999999998" y="490" as="targetPoint" />
          </mxGeometry>
        </mxCell>
        <mxCell id="WPCvZmUOCqv5itpOB0DE-14" value="" style="shape=curlyBracket;whiteSpace=wrap;html=1;rounded=1;labelPosition=left;verticalLabelPosition=middle;align=right;verticalAlign=middle;rotation=-180;" vertex="1" parent="1">
          <mxGeometry x="370" y="150" width="20" height="320" as="geometry" />
        </mxCell>
        <mxCell id="WPCvZmUOCqv5itpOB0DE-17" value="&lt;font style=&quot;font-size: 24px;&quot;&gt;Frozen Layers&lt;/font&gt;" style="text;html=1;align=center;verticalAlign=middle;whiteSpace=wrap;rounded=0;rotation=90;" vertex="1" parent="1">
          <mxGeometry x="330" y="305" width="205" height="30" as="geometry" />
        </mxCell>
        <mxCell id="WPCvZmUOCqv5itpOB0DE-18" value="&lt;font style=&quot;font-size: 24px;&quot;&gt;Fine Tuned Layers&lt;/font&gt;" style="text;html=1;align=center;verticalAlign=middle;whiteSpace=wrap;rounded=0;rotation=90;" vertex="1" parent="1">
          <mxGeometry x="330" y="705" width="205" height="30" as="geometry" />
        </mxCell>
        <mxCell id="WPCvZmUOCqv5itpOB0DE-19" value="" style="shape=curlyBracket;whiteSpace=wrap;html=1;rounded=1;labelPosition=left;verticalLabelPosition=middle;align=right;verticalAlign=middle;rotation=-180;" vertex="1" parent="1">
          <mxGeometry x="380" y="520" width="20" height="400" as="geometry" />
        </mxCell>
      </root>
    </mxGraphModel>
  </diagram>
</mxfile>
